<svg width="493" height="426" viewBox="0 0 493 426" fill="none" xmlns="http://www.w3.org/2000/svg">
<g clip-path="url(#clip0_1306_32)">
<path d="M71.304 346.84V415H64.68V383.128H24.264V415H17.544V346.84H24.264V377.176H64.68V346.84H71.304ZM107.637 415.96C104.053 415.96 100.725 415.288 97.653 413.944C94.645 412.536 92.021 410.648 89.781 408.28C87.605 405.848 85.909 403.096 84.693 400.024C83.477 396.888 82.869 393.592 82.869 390.136C82.869 386.552 83.477 383.224 84.693 380.152C85.909 377.016 87.637 374.264 89.877 371.896C92.117 369.464 94.741 367.576 97.749 366.232C100.821 364.824 104.149 364.12 107.733 364.12C111.317 364.12 114.613 364.824 117.621 366.232C120.629 367.576 123.253 369.464 125.493 371.896C127.733 374.264 129.461 377.016 130.677 380.152C131.893 383.224 132.501 386.552 132.501 390.136C132.501 393.592 131.893 396.888 130.677 400.024C129.461 403.096 127.733 405.848 125.493 408.28C123.317 410.648 120.693 412.536 117.621 413.944C114.613 415.288 111.285 415.96 107.637 415.96ZM89.493 390.232C89.493 393.944 90.293 397.336 91.893 400.408C93.557 403.416 95.765 405.816 98.517 407.608C101.269 409.336 104.309 410.2 107.637 410.2C110.965 410.2 114.005 409.304 116.757 407.512C119.509 405.72 121.717 403.288 123.381 400.216C125.045 397.08 125.877 393.688 125.877 390.04C125.877 386.328 125.045 382.936 123.381 379.864C121.717 376.792 119.509 374.36 116.757 372.568C114.005 370.776 110.965 369.88 107.637 369.88C104.309 369.88 101.269 370.808 98.517 372.664C95.829 374.52 93.653 376.984 91.989 380.056C90.325 383.064 89.493 386.456 89.493 390.232ZM164.731 415.96C161.147 415.96 157.819 415.288 154.747 413.944C151.739 412.536 149.115 410.648 146.875 408.28C144.699 405.848 143.003 403.096 141.787 400.024C140.571 396.888 139.963 393.592 139.963 390.136C139.963 386.552 140.571 383.224 141.787 380.152C143.003 377.016 144.731 374.264 146.971 371.896C149.211 369.464 151.835 367.576 154.843 366.232C157.915 364.824 161.243 364.12 164.827 364.12C168.411 364.12 171.707 364.824 174.715 366.232C177.723 367.576 180.347 369.464 182.587 371.896C184.827 374.264 186.555 377.016 187.771 380.152C188.987 383.224 189.595 386.552 189.595 390.136C189.595 393.592 188.987 396.888 187.771 400.024C186.555 403.096 184.827 405.848 182.587 408.28C180.411 410.648 177.787 412.536 174.715 413.944C171.707 415.288 168.379 415.96 164.731 415.96ZM146.587 390.232C146.587 393.944 147.387 397.336 148.987 400.408C150.651 403.416 152.859 405.816 155.611 407.608C158.363 409.336 161.403 410.2 164.731 410.2C168.059 410.2 171.099 409.304 173.851 407.512C176.603 405.72 178.811 403.288 180.475 400.216C182.139 397.08 182.971 393.688 182.971 390.04C182.971 386.328 182.139 382.936 180.475 379.864C178.811 376.792 176.603 374.36 173.851 372.568C171.099 370.776 168.059 369.88 164.731 369.88C161.403 369.88 158.363 370.808 155.611 372.664C152.923 374.52 150.747 376.984 149.083 380.056C147.419 383.064 146.587 386.456 146.587 390.232ZM197.153 390.136C197.153 385.4 198.113 381.08 200.033 377.176C202.017 373.208 204.737 370.04 208.193 367.672C211.649 365.304 215.585 364.12 220.001 364.12C224.161 364.12 227.873 365.24 231.137 367.48C234.465 369.656 237.057 372.312 238.913 375.448V344.92H245.441V407.128C245.441 408.024 245.633 408.696 246.017 409.144C246.401 409.528 246.977 409.752 247.745 409.816V415C246.465 415.192 245.473 415.256 244.769 415.192C243.425 415.128 242.241 414.584 241.217 413.56C240.193 412.536 239.681 411.416 239.681 410.2V405.304C237.697 408.568 235.009 411.16 231.617 413.08C228.225 415 224.705 415.96 221.057 415.96C217.601 415.96 214.401 415.256 211.457 413.848C208.577 412.44 206.049 410.52 203.873 408.088C201.761 405.656 200.097 402.904 198.881 399.832C197.729 396.696 197.153 393.464 197.153 390.136ZM238.913 397.816V382.36C238.081 380.056 236.737 377.976 234.881 376.12C233.025 374.2 230.913 372.696 228.545 371.608C226.241 370.456 223.937 369.88 221.633 369.88C218.945 369.88 216.513 370.456 214.337 371.608C212.161 372.696 210.273 374.2 208.673 376.12C207.137 378.04 205.953 380.216 205.121 382.648C204.289 385.08 203.873 387.576 203.873 390.136C203.873 392.824 204.321 395.384 205.217 397.816C206.177 400.248 207.521 402.424 209.249 404.344C210.977 406.2 212.961 407.64 215.201 408.664C217.441 409.688 219.873 410.2 222.497 410.2C224.161 410.2 225.889 409.88 227.681 409.24C229.473 408.6 231.169 407.736 232.769 406.648C234.433 405.496 235.809 404.152 236.897 402.616C237.985 401.08 238.657 399.48 238.913 397.816ZM287.495 415.96C283.655 415.96 280.231 415.096 277.223 413.368C274.215 411.64 271.847 409.272 270.119 406.264V415H258.887V344.92H271.751V373.528C273.543 370.52 275.879 368.152 278.759 366.424C281.703 364.696 285.127 363.832 289.031 363.832C292.295 363.832 295.271 364.536 297.959 365.944C300.647 367.288 302.951 369.176 304.871 371.608C306.855 374.04 308.359 376.824 309.383 379.96C310.471 383.096 311.015 386.456 311.015 390.04C311.015 393.624 310.407 396.984 309.191 400.12C308.039 403.256 306.407 406.04 304.295 408.472C302.183 410.84 299.687 412.696 296.807 414.04C293.991 415.32 290.887 415.96 287.495 415.96ZM283.943 405.016C285.991 405.016 287.847 404.632 289.511 403.864C291.239 403.032 292.711 401.944 293.927 400.6C295.207 399.256 296.167 397.688 296.807 395.896C297.511 394.04 297.863 392.12 297.863 390.136C297.863 387.384 297.287 384.856 296.135 382.552C295.047 380.184 293.511 378.296 291.527 376.888C289.607 375.48 287.335 374.776 284.711 374.776C282.855 374.776 281.063 375.224 279.335 376.12C277.671 376.952 276.167 378.104 274.823 379.576C273.543 381.048 272.519 382.712 271.751 384.568V396.568C272.135 397.848 272.743 399 273.575 400.024C274.471 401.048 275.495 401.944 276.647 402.712C277.799 403.416 278.983 403.992 280.199 404.44C281.479 404.824 282.727 405.016 283.943 405.016ZM342.963 415.96C338.867 415.96 335.187 415.288 331.923 413.944C328.659 412.536 325.875 410.616 323.571 408.184C321.331 405.752 319.603 402.968 318.387 399.832C317.171 396.696 316.563 393.4 316.563 389.944C316.563 386.424 317.171 383.096 318.387 379.96C319.603 376.824 321.331 374.04 323.571 371.608C325.875 369.176 328.659 367.288 331.923 365.944C335.187 364.536 338.867 363.832 342.963 363.832C347.059 363.832 350.707 364.536 353.907 365.944C357.171 367.288 359.955 369.176 362.259 371.608C364.563 374.04 366.291 376.824 367.443 379.96C368.659 383.096 369.267 386.424 369.267 389.944C369.267 393.4 368.659 396.696 367.443 399.832C366.291 402.968 364.563 405.752 362.259 408.184C360.019 410.616 357.267 412.536 354.003 413.944C350.739 415.288 347.059 415.96 342.963 415.96ZM329.811 389.944C329.811 392.888 330.387 395.512 331.539 397.816C332.691 400.056 334.259 401.816 336.243 403.096C338.227 404.376 340.467 405.016 342.963 405.016C345.395 405.016 347.603 404.376 349.587 403.096C351.571 401.752 353.139 399.96 354.291 397.72C355.507 395.416 356.115 392.792 356.115 389.848C356.115 386.968 355.507 384.376 354.291 382.072C353.139 379.768 351.571 377.976 349.587 376.696C347.603 375.416 345.395 374.776 342.963 374.776C340.467 374.776 338.227 375.448 336.243 376.792C334.259 378.072 332.691 379.864 331.539 382.168C330.387 384.408 329.811 387 329.811 389.944ZM401.182 415.96C397.086 415.96 393.406 415.288 390.142 413.944C386.878 412.536 384.094 410.616 381.79 408.184C379.55 405.752 377.822 402.968 376.606 399.832C375.39 396.696 374.782 393.4 374.782 389.944C374.782 386.424 375.39 383.096 376.606 379.96C377.822 376.824 379.55 374.04 381.79 371.608C384.094 369.176 386.878 367.288 390.142 365.944C393.406 364.536 397.086 363.832 401.182 363.832C405.278 363.832 408.926 364.536 412.126 365.944C415.39 367.288 418.174 369.176 420.478 371.608C422.782 374.04 424.51 376.824 425.662 379.96C426.878 383.096 427.486 386.424 427.486 389.944C427.486 393.4 426.878 396.696 425.662 399.832C424.51 402.968 422.782 405.752 420.478 408.184C418.238 410.616 415.486 412.536 412.222 413.944C408.958 415.288 405.278 415.96 401.182 415.96ZM388.03 389.944C388.03 392.888 388.606 395.512 389.758 397.816C390.91 400.056 392.478 401.816 394.462 403.096C396.446 404.376 398.686 405.016 401.182 405.016C403.614 405.016 405.822 404.376 407.806 403.096C409.79 401.752 411.358 399.96 412.51 397.72C413.726 395.416 414.334 392.792 414.334 389.848C414.334 386.968 413.726 384.376 412.51 382.072C411.358 379.768 409.79 377.976 407.806 376.696C405.822 375.416 403.614 374.776 401.182 374.776C398.686 374.776 396.446 375.448 394.462 376.792C392.478 378.072 390.91 379.864 389.758 382.168C388.606 384.408 388.03 387 388.03 389.944ZM470.537 415L455.849 393.304L449.033 400.024V415H436.169V344.92H449.033V387.352L469.289 364.792H482.921L464.201 386.104L484.265 415H470.537Z" fill="black"/>
<path d="M250.519 155L325 155L325 246.765L214.5 311L104 246.153L104 155L179.091 155L179.091 203.941L214.5 224.741L250.519 203.941L250.519 155Z" fill="url(#paint0_linear_1306_32)"/>
<path d="M253.481 156H179V64.2353L289.5 0L400 64.8471V156H324.909V107.059L289.5 86.2588L253.481 107.059V156Z" fill="url(#paint1_linear_1306_32)"/>
</g>
<defs>
<linearGradient id="paint0_linear_1306_32" x1="325" y1="222.294" x2="104" y2="222.294" gradientUnits="userSpaceOnUse">
<stop stop-color="#FF5770"/>
<stop offset="1" stop-color="#F79855"/>
</linearGradient>
<linearGradient id="paint1_linear_1306_32" x1="179" y1="88.7059" x2="400" y2="88.7059" gradientUnits="userSpaceOnUse">
<stop stop-color="#5DC1A3"/>
<stop offset="1" stop-color="#3299CB"/>
</linearGradient>
<clipPath id="clip0_1306_32">
<rect width="493" height="426" fill="white"/>
</clipPath>
</defs>
</svg>
