<svg width="741" height="254" viewBox="0 0 741 254" fill="none" xmlns="http://www.w3.org/2000/svg">
<g clip-path="url(#clip0_1306_23)">
<path d="M120 126.5L181 126.5L181 201.5L90.5 254L4.63341e-06 201L1.11464e-05 126.5L61.5 126.5L61.5 166.5L90.5 183.5L120 166.5L120 126.5Z" fill="url(#paint0_linear_1306_23)"/>
<path d="M328.304 57.34V125.5H321.68V93.628H281.264V125.5H274.544V57.34H281.264V87.676H321.68V57.34H328.304ZM364.637 126.46C361.053 126.46 357.725 125.788 354.653 124.444C351.645 123.036 349.021 121.148 346.781 118.78C344.605 116.348 342.909 113.596 341.693 110.524C340.477 107.388 339.869 104.092 339.869 100.636C339.869 97.052 340.477 93.724 341.693 90.652C342.909 87.516 344.637 84.764 346.877 82.396C349.117 79.964 351.741 78.076 354.749 76.732C357.821 75.324 361.149 74.62 364.733 74.62C368.317 74.62 371.613 75.324 374.621 76.732C377.629 78.076 380.253 79.964 382.493 82.396C384.733 84.764 386.461 87.516 387.677 90.652C388.893 93.724 389.501 97.052 389.501 100.636C389.501 104.092 388.893 107.388 387.677 110.524C386.461 113.596 384.733 116.348 382.493 118.78C380.317 121.148 377.693 123.036 374.621 124.444C371.613 125.788 368.285 126.46 364.637 126.46ZM346.493 100.732C346.493 104.444 347.293 107.836 348.893 110.908C350.557 113.916 352.765 116.316 355.517 118.108C358.269 119.836 361.309 120.7 364.637 120.7C367.965 120.7 371.005 119.804 373.757 118.012C376.509 116.22 378.717 113.788 380.381 110.716C382.045 107.58 382.877 104.188 382.877 100.54C382.877 96.828 382.045 93.436 380.381 90.364C378.717 87.292 376.509 84.86 373.757 83.068C371.005 81.276 367.965 80.38 364.637 80.38C361.309 80.38 358.269 81.308 355.517 83.164C352.829 85.02 350.653 87.484 348.989 90.556C347.325 93.564 346.493 96.956 346.493 100.732ZM421.731 126.46C418.147 126.46 414.819 125.788 411.747 124.444C408.739 123.036 406.115 121.148 403.875 118.78C401.699 116.348 400.003 113.596 398.787 110.524C397.571 107.388 396.963 104.092 396.963 100.636C396.963 97.052 397.571 93.724 398.787 90.652C400.003 87.516 401.731 84.764 403.971 82.396C406.211 79.964 408.835 78.076 411.843 76.732C414.915 75.324 418.243 74.62 421.827 74.62C425.411 74.62 428.707 75.324 431.715 76.732C434.723 78.076 437.347 79.964 439.587 82.396C441.827 84.764 443.555 87.516 444.771 90.652C445.987 93.724 446.595 97.052 446.595 100.636C446.595 104.092 445.987 107.388 444.771 110.524C443.555 113.596 441.827 116.348 439.587 118.78C437.411 121.148 434.787 123.036 431.715 124.444C428.707 125.788 425.379 126.46 421.731 126.46ZM403.587 100.732C403.587 104.444 404.387 107.836 405.987 110.908C407.651 113.916 409.859 116.316 412.611 118.108C415.363 119.836 418.403 120.7 421.731 120.7C425.059 120.7 428.099 119.804 430.851 118.012C433.603 116.22 435.811 113.788 437.475 110.716C439.139 107.58 439.971 104.188 439.971 100.54C439.971 96.828 439.139 93.436 437.475 90.364C435.811 87.292 433.603 84.86 430.851 83.068C428.099 81.276 425.059 80.38 421.731 80.38C418.403 80.38 415.363 81.308 412.611 83.164C409.923 85.02 407.747 87.484 406.083 90.556C404.419 93.564 403.587 96.956 403.587 100.732ZM454.153 100.636C454.153 95.9 455.113 91.58 457.033 87.676C459.017 83.708 461.737 80.54 465.193 78.172C468.649 75.804 472.585 74.62 477.001 74.62C481.161 74.62 484.873 75.74 488.137 77.98C491.465 80.156 494.057 82.812 495.913 85.948V55.42H502.441V117.628C502.441 118.524 502.633 119.196 503.017 119.644C503.401 120.028 503.977 120.252 504.745 120.316V125.5C503.465 125.692 502.473 125.756 501.769 125.692C500.425 125.628 499.241 125.084 498.217 124.06C497.193 123.036 496.681 121.916 496.681 120.7V115.804C494.697 119.068 492.009 121.66 488.617 123.58C485.225 125.5 481.705 126.46 478.057 126.46C474.601 126.46 471.401 125.756 468.457 124.348C465.577 122.94 463.049 121.02 460.873 118.588C458.761 116.156 457.097 113.404 455.881 110.332C454.729 107.196 454.153 103.964 454.153 100.636ZM495.913 108.316V92.86C495.081 90.556 493.737 88.476 491.881 86.62C490.025 84.7 487.913 83.196 485.545 82.108C483.241 80.956 480.937 80.38 478.633 80.38C475.945 80.38 473.513 80.956 471.337 82.108C469.161 83.196 467.273 84.7 465.673 86.62C464.137 88.54 462.953 90.716 462.121 93.148C461.289 95.58 460.873 98.076 460.873 100.636C460.873 103.324 461.321 105.884 462.217 108.316C463.177 110.748 464.521 112.924 466.249 114.844C467.977 116.7 469.961 118.14 472.201 119.164C474.441 120.188 476.873 120.7 479.497 120.7C481.161 120.7 482.889 120.38 484.681 119.74C486.473 119.1 488.169 118.236 489.769 117.148C491.433 115.996 492.809 114.652 493.897 113.116C494.985 111.58 495.657 109.98 495.913 108.316ZM544.495 126.46C540.655 126.46 537.231 125.596 534.223 123.868C531.215 122.14 528.847 119.772 527.119 116.764V125.5H515.887V55.42H528.751V84.028C530.543 81.02 532.879 78.652 535.759 76.924C538.703 75.196 542.127 74.332 546.031 74.332C549.295 74.332 552.271 75.036 554.959 76.444C557.647 77.788 559.951 79.676 561.871 82.108C563.855 84.54 565.359 87.324 566.383 90.46C567.471 93.596 568.015 96.956 568.015 100.54C568.015 104.124 567.407 107.484 566.191 110.62C565.039 113.756 563.407 116.54 561.295 118.972C559.183 121.34 556.687 123.196 553.807 124.54C550.991 125.82 547.887 126.46 544.495 126.46ZM540.943 115.516C542.991 115.516 544.847 115.132 546.511 114.364C548.239 113.532 549.711 112.444 550.927 111.1C552.207 109.756 553.167 108.188 553.807 106.396C554.511 104.54 554.863 102.62 554.863 100.636C554.863 97.884 554.287 95.356 553.135 93.052C552.047 90.684 550.511 88.796 548.527 87.388C546.607 85.98 544.335 85.276 541.711 85.276C539.855 85.276 538.063 85.724 536.335 86.62C534.671 87.452 533.167 88.604 531.823 90.076C530.543 91.548 529.519 93.212 528.751 95.068V107.068C529.135 108.348 529.743 109.5 530.575 110.524C531.471 111.548 532.495 112.444 533.647 113.212C534.799 113.916 535.983 114.492 537.199 114.94C538.479 115.324 539.727 115.516 540.943 115.516ZM599.963 126.46C595.867 126.46 592.187 125.788 588.923 124.444C585.659 123.036 582.875 121.116 580.571 118.684C578.331 116.252 576.603 113.468 575.387 110.332C574.171 107.196 573.563 103.9 573.563 100.444C573.563 96.924 574.171 93.596 575.387 90.46C576.603 87.324 578.331 84.54 580.571 82.108C582.875 79.676 585.659 77.788 588.923 76.444C592.187 75.036 595.867 74.332 599.963 74.332C604.059 74.332 607.707 75.036 610.907 76.444C614.171 77.788 616.955 79.676 619.259 82.108C621.563 84.54 623.291 87.324 624.443 90.46C625.659 93.596 626.267 96.924 626.267 100.444C626.267 103.9 625.659 107.196 624.443 110.332C623.291 113.468 621.563 116.252 619.259 118.684C617.019 121.116 614.267 123.036 611.003 124.444C607.739 125.788 604.059 126.46 599.963 126.46ZM586.811 100.444C586.811 103.388 587.387 106.012 588.539 108.316C589.691 110.556 591.259 112.316 593.243 113.596C595.227 114.876 597.467 115.516 599.963 115.516C602.395 115.516 604.603 114.876 606.587 113.596C608.571 112.252 610.139 110.46 611.291 108.22C612.507 105.916 613.115 103.292 613.115 100.348C613.115 97.468 612.507 94.876 611.291 92.572C610.139 90.268 608.571 88.476 606.587 87.196C604.603 85.916 602.395 85.276 599.963 85.276C597.467 85.276 595.227 85.948 593.243 87.292C591.259 88.572 589.691 90.364 588.539 92.668C587.387 94.908 586.811 97.5 586.811 100.444ZM658.182 126.46C654.086 126.46 650.406 125.788 647.142 124.444C643.878 123.036 641.094 121.116 638.79 118.684C636.55 116.252 634.822 113.468 633.606 110.332C632.39 107.196 631.782 103.9 631.782 100.444C631.782 96.924 632.39 93.596 633.606 90.46C634.822 87.324 636.55 84.54 638.79 82.108C641.094 79.676 643.878 77.788 647.142 76.444C650.406 75.036 654.086 74.332 658.182 74.332C662.278 74.332 665.926 75.036 669.126 76.444C672.39 77.788 675.174 79.676 677.478 82.108C679.782 84.54 681.51 87.324 682.662 90.46C683.878 93.596 684.486 96.924 684.486 100.444C684.486 103.9 683.878 107.196 682.662 110.332C681.51 113.468 679.782 116.252 677.478 118.684C675.238 121.116 672.486 123.036 669.222 124.444C665.958 125.788 662.278 126.46 658.182 126.46ZM645.03 100.444C645.03 103.388 645.606 106.012 646.758 108.316C647.91 110.556 649.478 112.316 651.462 113.596C653.446 114.876 655.686 115.516 658.182 115.516C660.614 115.516 662.822 114.876 664.806 113.596C666.79 112.252 668.358 110.46 669.51 108.22C670.726 105.916 671.334 103.292 671.334 100.348C671.334 97.468 670.726 94.876 669.51 92.572C668.358 90.268 666.79 88.476 664.806 87.196C662.822 85.916 660.614 85.276 658.182 85.276C655.686 85.276 653.446 85.948 651.462 87.292C649.478 88.572 647.91 90.364 646.758 92.668C645.606 94.908 645.03 97.5 645.03 100.444ZM727.537 125.5L712.849 103.804L706.033 110.524V125.5H693.169V55.42H706.033V97.852L726.289 75.292H739.921L721.201 96.604L741.265 125.5H727.537Z" fill="black"/>
<path d="M301.759 149.112H290.839V177H288.697V149.112H277.777V147.18H301.759V149.112ZM329.161 147.39H331.261L335.713 158.226L340.165 147.39H342.265L337.015 159.948L343.273 174.48L354.697 147.18H357.049L344.281 177H342.307L335.755 161.67L329.161 177H327.187L314.461 147.18H316.771L328.237 174.48L334.411 159.948L329.161 147.39ZM383.661 177.21C381.589 177.21 379.699 176.79 377.991 175.95C376.283 175.082 374.813 173.934 373.581 172.506C372.349 171.078 371.397 169.468 370.725 167.676C370.053 165.856 369.717 163.994 369.717 162.09C369.717 160.102 370.067 158.212 370.767 156.42C371.467 154.6 372.447 152.99 373.707 151.59C374.995 150.162 376.479 149.042 378.159 148.23C379.867 147.39 381.715 146.97 383.703 146.97C385.803 146.97 387.693 147.404 389.373 148.272C391.081 149.14 392.551 150.302 393.783 151.758C395.015 153.214 395.967 154.838 396.639 156.63C397.311 158.422 397.647 160.242 397.647 162.09C397.647 164.106 397.297 166.024 396.597 167.844C395.897 169.636 394.903 171.246 393.615 172.674C392.355 174.074 390.871 175.18 389.163 175.992C387.483 176.804 385.649 177.21 383.661 177.21ZM371.859 162.09C371.859 163.798 372.153 165.436 372.741 167.004C373.329 168.572 374.141 169.972 375.177 171.204C376.241 172.436 377.487 173.416 378.915 174.144C380.371 174.872 381.967 175.236 383.703 175.236C385.467 175.236 387.077 174.858 388.533 174.102C389.989 173.346 391.235 172.338 392.271 171.078C393.307 169.818 394.091 168.418 394.623 166.878C395.183 165.31 395.463 163.714 395.463 162.09C395.463 160.382 395.169 158.744 394.581 157.176C394.021 155.608 393.209 154.208 392.145 152.976C391.081 151.744 389.821 150.764 388.365 150.036C386.937 149.308 385.383 148.944 383.703 148.944C381.911 148.944 380.287 149.322 378.831 150.078C377.375 150.834 376.129 151.842 375.093 153.102C374.085 154.362 373.287 155.776 372.699 157.344C372.139 158.884 371.859 160.466 371.859 162.09ZM410.904 173.892C411.604 174.34 412.43 174.718 413.382 175.026C414.362 175.334 415.468 175.488 416.7 175.488C418.296 175.488 419.57 175.222 420.522 174.69C421.502 174.13 422.23 173.304 422.706 172.212C423.21 171.12 423.546 169.79 423.714 168.222C423.882 166.626 423.966 164.792 423.966 162.72V147.18H426.108V162.342C426.108 164.582 425.996 166.626 425.772 168.474C425.576 170.322 425.17 171.932 424.554 173.304C423.938 174.648 423 175.684 421.74 176.412C420.508 177.112 418.856 177.462 416.784 177.462C415.44 177.462 414.236 177.308 413.172 177C412.108 176.692 411.128 176.23 410.232 175.614L410.904 173.892ZM464.729 175.068V177H444.863V147.18H464.351V149.112H447.005V160.83H462.167V162.678H447.005V175.068H464.729ZM515.933 177.21C513.861 177.21 511.971 176.79 510.263 175.95C508.555 175.082 507.085 173.934 505.853 172.506C504.621 171.078 503.669 169.468 502.997 167.676C502.325 165.856 501.989 163.994 501.989 162.09C501.989 160.102 502.339 158.212 503.039 156.42C503.739 154.6 504.719 152.99 505.979 151.59C507.267 150.162 508.751 149.042 510.431 148.23C512.139 147.39 513.987 146.97 515.975 146.97C518.075 146.97 519.965 147.404 521.645 148.272C523.353 149.14 524.823 150.302 526.055 151.758C527.287 153.214 528.239 154.838 528.911 156.63C529.583 158.422 529.919 160.242 529.919 162.09C529.919 164.106 529.569 166.024 528.869 167.844C528.169 169.636 527.175 171.246 525.887 172.674C524.627 174.074 523.143 175.18 521.435 175.992C519.755 176.804 517.921 177.21 515.933 177.21ZM504.131 162.09C504.131 163.798 504.425 165.436 505.013 167.004C505.601 168.572 506.413 169.972 507.449 171.204C508.513 172.436 509.759 173.416 511.187 174.144C512.643 174.872 514.239 175.236 515.975 175.236C517.739 175.236 519.349 174.858 520.805 174.102C522.261 173.346 523.507 172.338 524.543 171.078C525.579 169.818 526.363 168.418 526.895 166.878C527.455 165.31 527.735 163.714 527.735 162.09C527.735 160.382 527.441 158.744 526.853 157.176C526.293 155.608 525.481 154.208 524.417 152.976C523.353 151.744 522.093 150.764 520.637 150.036C519.209 149.308 517.655 148.944 515.975 148.944C514.183 148.944 512.559 149.322 511.103 150.078C509.647 150.834 508.401 151.842 507.365 153.102C506.357 154.362 505.559 155.776 504.971 157.344C504.411 158.884 504.131 160.466 504.131 162.09ZM564.356 152.136C563.88 151.604 563.348 151.142 562.76 150.75C562.172 150.33 561.542 149.994 560.87 149.742C560.198 149.462 559.47 149.252 558.686 149.112C557.902 148.972 557.062 148.902 556.166 148.902C553.254 148.902 551.126 149.462 549.782 150.582C548.466 151.674 547.808 153.158 547.808 155.034C547.808 156.294 548.102 157.302 548.69 158.058C549.306 158.786 550.258 159.374 551.546 159.822C552.834 160.27 554.5 160.704 556.544 161.124C558.7 161.572 560.562 162.104 562.13 162.72C563.698 163.308 564.902 164.12 565.742 165.156C566.61 166.192 567.044 167.592 567.044 169.356C567.044 170.672 566.792 171.834 566.288 172.842C565.784 173.822 565.056 174.634 564.104 175.278C563.152 175.922 562.018 176.412 560.702 176.748C559.414 177.084 557.972 177.252 556.376 177.252C554.836 177.252 553.366 177.084 551.966 176.748C550.566 176.412 549.25 175.922 548.018 175.278C546.786 174.634 545.638 173.808 544.574 172.8L545.708 171.078C546.324 171.75 547.01 172.352 547.766 172.884C548.55 173.388 549.39 173.822 550.286 174.186C551.21 174.55 552.19 174.844 553.226 175.068C554.262 175.264 555.34 175.362 556.46 175.362C559.064 175.362 561.094 174.886 562.55 173.934C564.034 172.954 564.776 171.512 564.776 169.608C564.776 168.292 564.44 167.228 563.768 166.416C563.096 165.604 562.06 164.946 560.66 164.442C559.26 163.91 557.51 163.42 555.41 162.972C553.31 162.524 551.518 162.02 550.034 161.46C548.578 160.9 547.472 160.144 546.716 159.192C545.988 158.24 545.624 156.952 545.624 155.328C545.624 153.536 546.058 152.024 546.926 150.792C547.822 149.532 549.068 148.58 550.664 147.936C552.26 147.292 554.094 146.97 556.166 146.97C557.454 146.97 558.644 147.096 559.736 147.348C560.856 147.6 561.878 147.992 562.802 148.524C563.754 149.028 564.636 149.672 565.448 150.456L564.356 152.136ZM583.779 177V147.18H585.921V177H583.779ZM624.952 175.068V177H605.086V147.18H624.574V149.112H607.228V160.83H622.39V162.678H607.228V175.068H624.952ZM642.143 177V147.18H652.055C655.219 147.18 657.837 147.852 659.909 149.196C662.009 150.512 663.577 152.304 664.613 154.572C665.677 156.812 666.209 159.304 666.209 162.048C666.209 165.072 665.635 167.704 664.487 169.944C663.339 172.184 661.701 173.92 659.573 175.152C657.445 176.384 654.939 177 652.055 177H642.143ZM664.067 162.048C664.067 159.556 663.591 157.33 662.639 155.37C661.715 153.41 660.357 151.884 658.565 150.792C656.801 149.672 654.631 149.112 652.055 149.112H644.285V175.068H652.055C654.659 175.068 656.857 174.494 658.649 173.346C660.441 172.198 661.785 170.644 662.681 168.684C663.605 166.696 664.067 164.484 664.067 162.048ZM683.424 177V147.18H685.566V175.068H703.374V177H683.424ZM739.035 175.068V177H719.169V147.18H738.657V149.112H721.311V160.83H736.473V162.678H721.311V175.068H739.035Z" fill="black"/>
<path d="M122 127.5H61V52.5L151.5 0L242 53V127.5H180.5V87.5L151.5 70.5L122 87.5V127.5Z" fill="url(#paint1_linear_1306_23)"/>
</g>
<defs>
<linearGradient id="paint0_linear_1306_23" x1="181" y1="181.5" x2="4.04649e-06" y2="181.5" gradientUnits="userSpaceOnUse">
<stop stop-color="#FF5770"/>
<stop offset="1" stop-color="#F79855"/>
</linearGradient>
<linearGradient id="paint1_linear_1306_23" x1="61" y1="72.5" x2="242" y2="72.5" gradientUnits="userSpaceOnUse">
<stop stop-color="#5DC1A3"/>
<stop offset="1" stop-color="#3299CB"/>
</linearGradient>
<clipPath id="clip0_1306_23">
<rect width="741" height="254" fill="white"/>
</clipPath>
</defs>
</svg>
