<svg width="493" height="466" viewBox="0 0 493 466" fill="none" xmlns="http://www.w3.org/2000/svg">
<path d="M44.7585 424.612H33.8385V452.5H31.6965V424.612H20.7765V422.68H44.7585V424.612ZM72.1612 422.89H74.2612L78.7132 433.726L83.1652 422.89H85.2652L80.0152 435.448L86.2732 449.98L97.6972 422.68H100.049L87.2812 452.5H85.3072L78.7552 437.17L72.1612 452.5H70.1872L57.4612 422.68H59.7712L71.2372 449.98L77.4112 435.448L72.1612 422.89ZM126.661 452.71C124.589 452.71 122.699 452.29 120.991 451.45C119.283 450.582 117.813 449.434 116.581 448.006C115.349 446.578 114.397 444.968 113.725 443.176C113.053 441.356 112.717 439.494 112.717 437.59C112.717 435.602 113.067 433.712 113.767 431.92C114.467 430.1 115.447 428.49 116.707 427.09C117.995 425.662 119.479 424.542 121.159 423.73C122.867 422.89 124.715 422.47 126.703 422.47C128.803 422.47 130.693 422.904 132.373 423.772C134.081 424.64 135.551 425.802 136.783 427.258C138.015 428.714 138.967 430.338 139.639 432.13C140.311 433.922 140.647 435.742 140.647 437.59C140.647 439.606 140.297 441.524 139.597 443.344C138.897 445.136 137.903 446.746 136.615 448.174C135.355 449.574 133.871 450.68 132.163 451.492C130.483 452.304 128.649 452.71 126.661 452.71ZM114.859 437.59C114.859 439.298 115.153 440.936 115.741 442.504C116.329 444.072 117.141 445.472 118.177 446.704C119.241 447.936 120.487 448.916 121.915 449.644C123.371 450.372 124.967 450.736 126.703 450.736C128.467 450.736 130.077 450.358 131.533 449.602C132.989 448.846 134.235 447.838 135.271 446.578C136.307 445.318 137.091 443.918 137.623 442.378C138.183 440.81 138.463 439.214 138.463 437.59C138.463 435.882 138.169 434.244 137.581 432.676C137.021 431.108 136.209 429.708 135.145 428.476C134.081 427.244 132.821 426.264 131.365 425.536C129.937 424.808 128.383 424.444 126.703 424.444C124.911 424.444 123.287 424.822 121.831 425.578C120.375 426.334 119.129 427.342 118.093 428.602C117.085 429.862 116.287 431.276 115.699 432.844C115.139 434.384 114.859 435.966 114.859 437.59ZM153.904 449.392C154.604 449.84 155.43 450.218 156.382 450.526C157.362 450.834 158.468 450.988 159.7 450.988C161.296 450.988 162.57 450.722 163.522 450.19C164.502 449.63 165.23 448.804 165.706 447.712C166.21 446.62 166.546 445.29 166.714 443.722C166.882 442.126 166.966 440.292 166.966 438.22V422.68H169.108V437.842C169.108 440.082 168.996 442.126 168.772 443.974C168.576 445.822 168.17 447.432 167.554 448.804C166.938 450.148 166 451.184 164.74 451.912C163.508 452.612 161.856 452.962 159.784 452.962C158.44 452.962 157.236 452.808 156.172 452.5C155.108 452.192 154.128 451.73 153.232 451.114L153.904 449.392ZM207.729 450.568V452.5H187.863V422.68H207.351V424.612H190.005V436.33H205.167V438.178H190.005V450.568H207.729ZM258.933 452.71C256.861 452.71 254.971 452.29 253.263 451.45C251.555 450.582 250.085 449.434 248.853 448.006C247.621 446.578 246.669 444.968 245.997 443.176C245.325 441.356 244.989 439.494 244.989 437.59C244.989 435.602 245.339 433.712 246.039 431.92C246.739 430.1 247.719 428.49 248.979 427.09C250.267 425.662 251.751 424.542 253.431 423.73C255.139 422.89 256.987 422.47 258.975 422.47C261.075 422.47 262.965 422.904 264.645 423.772C266.353 424.64 267.823 425.802 269.055 427.258C270.287 428.714 271.239 430.338 271.911 432.13C272.583 433.922 272.919 435.742 272.919 437.59C272.919 439.606 272.569 441.524 271.869 443.344C271.169 445.136 270.175 446.746 268.887 448.174C267.627 449.574 266.143 450.68 264.435 451.492C262.755 452.304 260.921 452.71 258.933 452.71ZM247.131 437.59C247.131 439.298 247.425 440.936 248.013 442.504C248.601 444.072 249.413 445.472 250.449 446.704C251.513 447.936 252.759 448.916 254.187 449.644C255.643 450.372 257.239 450.736 258.975 450.736C260.739 450.736 262.349 450.358 263.805 449.602C265.261 448.846 266.507 447.838 267.543 446.578C268.579 445.318 269.363 443.918 269.895 442.378C270.455 440.81 270.735 439.214 270.735 437.59C270.735 435.882 270.441 434.244 269.853 432.676C269.293 431.108 268.481 429.708 267.417 428.476C266.353 427.244 265.093 426.264 263.637 425.536C262.209 424.808 260.655 424.444 258.975 424.444C257.183 424.444 255.559 424.822 254.103 425.578C252.647 426.334 251.401 427.342 250.365 428.602C249.357 429.862 248.559 431.276 247.971 432.844C247.411 434.384 247.131 435.966 247.131 437.59ZM307.356 427.636C306.88 427.104 306.348 426.642 305.76 426.25C305.172 425.83 304.542 425.494 303.87 425.242C303.198 424.962 302.47 424.752 301.686 424.612C300.902 424.472 300.062 424.402 299.166 424.402C296.254 424.402 294.126 424.962 292.782 426.082C291.466 427.174 290.808 428.658 290.808 430.534C290.808 431.794 291.102 432.802 291.69 433.558C292.306 434.286 293.258 434.874 294.546 435.322C295.834 435.77 297.5 436.204 299.544 436.624C301.7 437.072 303.562 437.604 305.13 438.22C306.698 438.808 307.902 439.62 308.742 440.656C309.61 441.692 310.044 443.092 310.044 444.856C310.044 446.172 309.792 447.334 309.288 448.342C308.784 449.322 308.056 450.134 307.104 450.778C306.152 451.422 305.018 451.912 303.702 452.248C302.414 452.584 300.972 452.752 299.376 452.752C297.836 452.752 296.366 452.584 294.966 452.248C293.566 451.912 292.25 451.422 291.018 450.778C289.786 450.134 288.638 449.308 287.574 448.3L288.708 446.578C289.324 447.25 290.01 447.852 290.766 448.384C291.55 448.888 292.39 449.322 293.286 449.686C294.21 450.05 295.19 450.344 296.226 450.568C297.262 450.764 298.34 450.862 299.46 450.862C302.064 450.862 304.094 450.386 305.55 449.434C307.034 448.454 307.776 447.012 307.776 445.108C307.776 443.792 307.44 442.728 306.768 441.916C306.096 441.104 305.06 440.446 303.66 439.942C302.26 439.41 300.51 438.92 298.41 438.472C296.31 438.024 294.518 437.52 293.034 436.96C291.578 436.4 290.472 435.644 289.716 434.692C288.988 433.74 288.624 432.452 288.624 430.828C288.624 429.036 289.058 427.524 289.926 426.292C290.822 425.032 292.068 424.08 293.664 423.436C295.26 422.792 297.094 422.47 299.166 422.47C300.454 422.47 301.644 422.596 302.736 422.848C303.856 423.1 304.878 423.492 305.802 424.024C306.754 424.528 307.636 425.172 308.448 425.956L307.356 427.636ZM326.779 452.5V422.68H328.921V452.5H326.779ZM367.952 450.568V452.5H348.086V422.68H367.574V424.612H350.228V436.33H365.39V438.178H350.228V450.568H367.952ZM385.143 452.5V422.68H395.055C398.219 422.68 400.837 423.352 402.909 424.696C405.009 426.012 406.577 427.804 407.613 430.072C408.677 432.312 409.209 434.804 409.209 437.548C409.209 440.572 408.635 443.204 407.487 445.444C406.339 447.684 404.701 449.42 402.573 450.652C400.445 451.884 397.939 452.5 395.055 452.5H385.143ZM407.067 437.548C407.067 435.056 406.591 432.83 405.639 430.87C404.715 428.91 403.357 427.384 401.565 426.292C399.801 425.172 397.631 424.612 395.055 424.612H387.285V450.568H395.055C397.659 450.568 399.857 449.994 401.649 448.846C403.441 447.698 404.785 446.144 405.681 444.184C406.605 442.196 407.067 439.984 407.067 437.548ZM426.424 452.5V422.68H428.566V450.568H446.374V452.5H426.424ZM482.035 450.568V452.5H462.169V422.68H481.657V424.612H464.311V436.33H479.473V438.178H464.311V450.568H482.035Z" fill="black"/>
<path d="M71.304 332.84V401H64.68V369.128H24.264V401H17.544V332.84H24.264V363.176H64.68V332.84H71.304ZM107.637 401.96C104.053 401.96 100.725 401.288 97.653 399.944C94.645 398.536 92.021 396.648 89.781 394.28C87.605 391.848 85.909 389.096 84.693 386.024C83.477 382.888 82.869 379.592 82.869 376.136C82.869 372.552 83.477 369.224 84.693 366.152C85.909 363.016 87.637 360.264 89.877 357.896C92.117 355.464 94.741 353.576 97.749 352.232C100.821 350.824 104.149 350.12 107.733 350.12C111.317 350.12 114.613 350.824 117.621 352.232C120.629 353.576 123.253 355.464 125.493 357.896C127.733 360.264 129.461 363.016 130.677 366.152C131.893 369.224 132.501 372.552 132.501 376.136C132.501 379.592 131.893 382.888 130.677 386.024C129.461 389.096 127.733 391.848 125.493 394.28C123.317 396.648 120.693 398.536 117.621 399.944C114.613 401.288 111.285 401.96 107.637 401.96ZM89.493 376.232C89.493 379.944 90.293 383.336 91.893 386.408C93.557 389.416 95.765 391.816 98.517 393.608C101.269 395.336 104.309 396.2 107.637 396.2C110.965 396.2 114.005 395.304 116.757 393.512C119.509 391.72 121.717 389.288 123.381 386.216C125.045 383.08 125.877 379.688 125.877 376.04C125.877 372.328 125.045 368.936 123.381 365.864C121.717 362.792 119.509 360.36 116.757 358.568C114.005 356.776 110.965 355.88 107.637 355.88C104.309 355.88 101.269 356.808 98.517 358.664C95.829 360.52 93.653 362.984 91.989 366.056C90.325 369.064 89.493 372.456 89.493 376.232ZM164.731 401.96C161.147 401.96 157.819 401.288 154.747 399.944C151.739 398.536 149.115 396.648 146.875 394.28C144.699 391.848 143.003 389.096 141.787 386.024C140.571 382.888 139.963 379.592 139.963 376.136C139.963 372.552 140.571 369.224 141.787 366.152C143.003 363.016 144.731 360.264 146.971 357.896C149.211 355.464 151.835 353.576 154.843 352.232C157.915 350.824 161.243 350.12 164.827 350.12C168.411 350.12 171.707 350.824 174.715 352.232C177.723 353.576 180.347 355.464 182.587 357.896C184.827 360.264 186.555 363.016 187.771 366.152C188.987 369.224 189.595 372.552 189.595 376.136C189.595 379.592 188.987 382.888 187.771 386.024C186.555 389.096 184.827 391.848 182.587 394.28C180.411 396.648 177.787 398.536 174.715 399.944C171.707 401.288 168.379 401.96 164.731 401.96ZM146.587 376.232C146.587 379.944 147.387 383.336 148.987 386.408C150.651 389.416 152.859 391.816 155.611 393.608C158.363 395.336 161.403 396.2 164.731 396.2C168.059 396.2 171.099 395.304 173.851 393.512C176.603 391.72 178.811 389.288 180.475 386.216C182.139 383.08 182.971 379.688 182.971 376.04C182.971 372.328 182.139 368.936 180.475 365.864C178.811 362.792 176.603 360.36 173.851 358.568C171.099 356.776 168.059 355.88 164.731 355.88C161.403 355.88 158.363 356.808 155.611 358.664C152.923 360.52 150.747 362.984 149.083 366.056C147.419 369.064 146.587 372.456 146.587 376.232ZM197.153 376.136C197.153 371.4 198.113 367.08 200.033 363.176C202.017 359.208 204.737 356.04 208.193 353.672C211.649 351.304 215.585 350.12 220.001 350.12C224.161 350.12 227.873 351.24 231.137 353.48C234.465 355.656 237.057 358.312 238.913 361.448V330.92H245.441V393.128C245.441 394.024 245.633 394.696 246.017 395.144C246.401 395.528 246.977 395.752 247.745 395.816V401C246.465 401.192 245.473 401.256 244.769 401.192C243.425 401.128 242.241 400.584 241.217 399.56C240.193 398.536 239.681 397.416 239.681 396.2V391.304C237.697 394.568 235.009 397.16 231.617 399.08C228.225 401 224.705 401.96 221.057 401.96C217.601 401.96 214.401 401.256 211.457 399.848C208.577 398.44 206.049 396.52 203.873 394.088C201.761 391.656 200.097 388.904 198.881 385.832C197.729 382.696 197.153 379.464 197.153 376.136ZM238.913 383.816V368.36C238.081 366.056 236.737 363.976 234.881 362.12C233.025 360.2 230.913 358.696 228.545 357.608C226.241 356.456 223.937 355.88 221.633 355.88C218.945 355.88 216.513 356.456 214.337 357.608C212.161 358.696 210.273 360.2 208.673 362.12C207.137 364.04 205.953 366.216 205.121 368.648C204.289 371.08 203.873 373.576 203.873 376.136C203.873 378.824 204.321 381.384 205.217 383.816C206.177 386.248 207.521 388.424 209.249 390.344C210.977 392.2 212.961 393.64 215.201 394.664C217.441 395.688 219.873 396.2 222.497 396.2C224.161 396.2 225.889 395.88 227.681 395.24C229.473 394.6 231.169 393.736 232.769 392.648C234.433 391.496 235.809 390.152 236.897 388.616C237.985 387.08 238.657 385.48 238.913 383.816ZM287.495 401.96C283.655 401.96 280.231 401.096 277.223 399.368C274.215 397.64 271.847 395.272 270.119 392.264V401H258.887V330.92H271.751V359.528C273.543 356.52 275.879 354.152 278.759 352.424C281.703 350.696 285.127 349.832 289.031 349.832C292.295 349.832 295.271 350.536 297.959 351.944C300.647 353.288 302.951 355.176 304.871 357.608C306.855 360.04 308.359 362.824 309.383 365.96C310.471 369.096 311.015 372.456 311.015 376.04C311.015 379.624 310.407 382.984 309.191 386.12C308.039 389.256 306.407 392.04 304.295 394.472C302.183 396.84 299.687 398.696 296.807 400.04C293.991 401.32 290.887 401.96 287.495 401.96ZM283.943 391.016C285.991 391.016 287.847 390.632 289.511 389.864C291.239 389.032 292.711 387.944 293.927 386.6C295.207 385.256 296.167 383.688 296.807 381.896C297.511 380.04 297.863 378.12 297.863 376.136C297.863 373.384 297.287 370.856 296.135 368.552C295.047 366.184 293.511 364.296 291.527 362.888C289.607 361.48 287.335 360.776 284.711 360.776C282.855 360.776 281.063 361.224 279.335 362.12C277.671 362.952 276.167 364.104 274.823 365.576C273.543 367.048 272.519 368.712 271.751 370.568V382.568C272.135 383.848 272.743 385 273.575 386.024C274.471 387.048 275.495 387.944 276.647 388.712C277.799 389.416 278.983 389.992 280.199 390.44C281.479 390.824 282.727 391.016 283.943 391.016ZM342.963 401.96C338.867 401.96 335.187 401.288 331.923 399.944C328.659 398.536 325.875 396.616 323.571 394.184C321.331 391.752 319.603 388.968 318.387 385.832C317.171 382.696 316.563 379.4 316.563 375.944C316.563 372.424 317.171 369.096 318.387 365.96C319.603 362.824 321.331 360.04 323.571 357.608C325.875 355.176 328.659 353.288 331.923 351.944C335.187 350.536 338.867 349.832 342.963 349.832C347.059 349.832 350.707 350.536 353.907 351.944C357.171 353.288 359.955 355.176 362.259 357.608C364.563 360.04 366.291 362.824 367.443 365.96C368.659 369.096 369.267 372.424 369.267 375.944C369.267 379.4 368.659 382.696 367.443 385.832C366.291 388.968 364.563 391.752 362.259 394.184C360.019 396.616 357.267 398.536 354.003 399.944C350.739 401.288 347.059 401.96 342.963 401.96ZM329.811 375.944C329.811 378.888 330.387 381.512 331.539 383.816C332.691 386.056 334.259 387.816 336.243 389.096C338.227 390.376 340.467 391.016 342.963 391.016C345.395 391.016 347.603 390.376 349.587 389.096C351.571 387.752 353.139 385.96 354.291 383.72C355.507 381.416 356.115 378.792 356.115 375.848C356.115 372.968 355.507 370.376 354.291 368.072C353.139 365.768 351.571 363.976 349.587 362.696C347.603 361.416 345.395 360.776 342.963 360.776C340.467 360.776 338.227 361.448 336.243 362.792C334.259 364.072 332.691 365.864 331.539 368.168C330.387 370.408 329.811 373 329.811 375.944ZM401.182 401.96C397.086 401.96 393.406 401.288 390.142 399.944C386.878 398.536 384.094 396.616 381.79 394.184C379.55 391.752 377.822 388.968 376.606 385.832C375.39 382.696 374.782 379.4 374.782 375.944C374.782 372.424 375.39 369.096 376.606 365.96C377.822 362.824 379.55 360.04 381.79 357.608C384.094 355.176 386.878 353.288 390.142 351.944C393.406 350.536 397.086 349.832 401.182 349.832C405.278 349.832 408.926 350.536 412.126 351.944C415.39 353.288 418.174 355.176 420.478 357.608C422.782 360.04 424.51 362.824 425.662 365.96C426.878 369.096 427.486 372.424 427.486 375.944C427.486 379.4 426.878 382.696 425.662 385.832C424.51 388.968 422.782 391.752 420.478 394.184C418.238 396.616 415.486 398.536 412.222 399.944C408.958 401.288 405.278 401.96 401.182 401.96ZM388.03 375.944C388.03 378.888 388.606 381.512 389.758 383.816C390.91 386.056 392.478 387.816 394.462 389.096C396.446 390.376 398.686 391.016 401.182 391.016C403.614 391.016 405.822 390.376 407.806 389.096C409.79 387.752 411.358 385.96 412.51 383.72C413.726 381.416 414.334 378.792 414.334 375.848C414.334 372.968 413.726 370.376 412.51 368.072C411.358 365.768 409.79 363.976 407.806 362.696C405.822 361.416 403.614 360.776 401.182 360.776C398.686 360.776 396.446 361.448 394.462 362.792C392.478 364.072 390.91 365.864 389.758 368.168C388.606 370.408 388.03 373 388.03 375.944ZM470.537 401L455.849 379.304L449.033 386.024V401H436.169V330.92H449.033V373.352L469.289 350.792H482.921L464.201 372.104L484.265 401H470.537Z" fill="black"/>
<path d="M250.519 155L325 155L325 246.765L214.5 311L104 246.153L104 155L179.091 155L179.091 203.941L214.5 224.741L250.519 203.941L250.519 155Z" fill="url(#paint0_linear_1306_31)"/>
<path d="M253.481 156H179V64.2353L289.5 0L400 64.8471V156H324.909V107.059L289.5 86.2588L253.481 107.059V156Z" fill="url(#paint1_linear_1306_31)"/>
<defs>
<linearGradient id="paint0_linear_1306_31" x1="325" y1="222.294" x2="104" y2="222.294" gradientUnits="userSpaceOnUse">
<stop stop-color="#FF5770"/>
<stop offset="1" stop-color="#F79855"/>
</linearGradient>
<linearGradient id="paint1_linear_1306_31" x1="179" y1="88.7059" x2="400" y2="88.7059" gradientUnits="userSpaceOnUse">
<stop stop-color="#5DC1A3"/>
<stop offset="1" stop-color="#3299CB"/>
</linearGradient>
</defs>
</svg>
