<svg width="684" height="203" viewBox="0 0 684 203" fill="none" xmlns="http://www.w3.org/2000/svg">
<g clip-path="url(#clip0_1306_37)">
<path d="M96.1326 101L145 101L145 161L72.5 203L-1.15521e-05 160.6L-6.34167e-06 101L49.268 101L49.268 133L72.5 146.6L96.1326 133L96.1326 101Z" fill="url(#paint0_linear_1306_37)"/>
<path d="M271.304 67.84V136H264.68V104.128H224.264V136H217.544V67.84H224.264V98.176H264.68V67.84H271.304ZM307.637 136.96C304.053 136.96 300.725 136.288 297.653 134.944C294.645 133.536 292.021 131.648 289.781 129.28C287.605 126.848 285.909 124.096 284.693 121.024C283.477 117.888 282.869 114.592 282.869 111.136C282.869 107.552 283.477 104.224 284.693 101.152C285.909 98.016 287.637 95.264 289.877 92.896C292.117 90.464 294.741 88.576 297.749 87.232C300.821 85.824 304.149 85.12 307.733 85.12C311.317 85.12 314.613 85.824 317.621 87.232C320.629 88.576 323.253 90.464 325.493 92.896C327.733 95.264 329.461 98.016 330.677 101.152C331.893 104.224 332.501 107.552 332.501 111.136C332.501 114.592 331.893 117.888 330.677 121.024C329.461 124.096 327.733 126.848 325.493 129.28C323.317 131.648 320.693 133.536 317.621 134.944C314.613 136.288 311.285 136.96 307.637 136.96ZM289.493 111.232C289.493 114.944 290.293 118.336 291.893 121.408C293.557 124.416 295.765 126.816 298.517 128.608C301.269 130.336 304.309 131.2 307.637 131.2C310.965 131.2 314.005 130.304 316.757 128.512C319.509 126.72 321.717 124.288 323.381 121.216C325.045 118.08 325.877 114.688 325.877 111.04C325.877 107.328 325.045 103.936 323.381 100.864C321.717 97.792 319.509 95.36 316.757 93.568C314.005 91.776 310.965 90.88 307.637 90.88C304.309 90.88 301.269 91.808 298.517 93.664C295.829 95.52 293.653 97.984 291.989 101.056C290.325 104.064 289.493 107.456 289.493 111.232ZM364.731 136.96C361.147 136.96 357.819 136.288 354.747 134.944C351.739 133.536 349.115 131.648 346.875 129.28C344.699 126.848 343.003 124.096 341.787 121.024C340.571 117.888 339.963 114.592 339.963 111.136C339.963 107.552 340.571 104.224 341.787 101.152C343.003 98.016 344.731 95.264 346.971 92.896C349.211 90.464 351.835 88.576 354.843 87.232C357.915 85.824 361.243 85.12 364.827 85.12C368.411 85.12 371.707 85.824 374.715 87.232C377.723 88.576 380.347 90.464 382.587 92.896C384.827 95.264 386.555 98.016 387.771 101.152C388.987 104.224 389.595 107.552 389.595 111.136C389.595 114.592 388.987 117.888 387.771 121.024C386.555 124.096 384.827 126.848 382.587 129.28C380.411 131.648 377.787 133.536 374.715 134.944C371.707 136.288 368.379 136.96 364.731 136.96ZM346.587 111.232C346.587 114.944 347.387 118.336 348.987 121.408C350.651 124.416 352.859 126.816 355.611 128.608C358.363 130.336 361.403 131.2 364.731 131.2C368.059 131.2 371.099 130.304 373.851 128.512C376.603 126.72 378.811 124.288 380.475 121.216C382.139 118.08 382.971 114.688 382.971 111.04C382.971 107.328 382.139 103.936 380.475 100.864C378.811 97.792 376.603 95.36 373.851 93.568C371.099 91.776 368.059 90.88 364.731 90.88C361.403 90.88 358.363 91.808 355.611 93.664C352.923 95.52 350.747 97.984 349.083 101.056C347.419 104.064 346.587 107.456 346.587 111.232ZM397.153 111.136C397.153 106.4 398.113 102.08 400.033 98.176C402.017 94.208 404.737 91.04 408.193 88.672C411.649 86.304 415.585 85.12 420.001 85.12C424.161 85.12 427.873 86.24 431.137 88.48C434.465 90.656 437.057 93.312 438.913 96.448V65.92H445.441V128.128C445.441 129.024 445.633 129.696 446.017 130.144C446.401 130.528 446.977 130.752 447.745 130.816V136C446.465 136.192 445.473 136.256 444.769 136.192C443.425 136.128 442.241 135.584 441.217 134.56C440.193 133.536 439.681 132.416 439.681 131.2V126.304C437.697 129.568 435.009 132.16 431.617 134.08C428.225 136 424.705 136.96 421.057 136.96C417.601 136.96 414.401 136.256 411.457 134.848C408.577 133.44 406.049 131.52 403.873 129.088C401.761 126.656 400.097 123.904 398.881 120.832C397.729 117.696 397.153 114.464 397.153 111.136ZM438.913 118.816V103.36C438.081 101.056 436.737 98.976 434.881 97.12C433.025 95.2 430.913 93.696 428.545 92.608C426.241 91.456 423.937 90.88 421.633 90.88C418.945 90.88 416.513 91.456 414.337 92.608C412.161 93.696 410.273 95.2 408.673 97.12C407.137 99.04 405.953 101.216 405.121 103.648C404.289 106.08 403.873 108.576 403.873 111.136C403.873 113.824 404.321 116.384 405.217 118.816C406.177 121.248 407.521 123.424 409.249 125.344C410.977 127.2 412.961 128.64 415.201 129.664C417.441 130.688 419.873 131.2 422.497 131.2C424.161 131.2 425.889 130.88 427.681 130.24C429.473 129.6 431.169 128.736 432.769 127.648C434.433 126.496 435.809 125.152 436.897 123.616C437.985 122.08 438.657 120.48 438.913 118.816ZM487.495 136.96C483.655 136.96 480.231 136.096 477.223 134.368C474.215 132.64 471.847 130.272 470.119 127.264V136H458.887V65.92H471.751V94.528C473.543 91.52 475.879 89.152 478.759 87.424C481.703 85.696 485.127 84.832 489.031 84.832C492.295 84.832 495.271 85.536 497.959 86.944C500.647 88.288 502.951 90.176 504.871 92.608C506.855 95.04 508.359 97.824 509.383 100.96C510.471 104.096 511.015 107.456 511.015 111.04C511.015 114.624 510.407 117.984 509.191 121.12C508.039 124.256 506.407 127.04 504.295 129.472C502.183 131.84 499.687 133.696 496.807 135.04C493.991 136.32 490.887 136.96 487.495 136.96ZM483.943 126.016C485.991 126.016 487.847 125.632 489.511 124.864C491.239 124.032 492.711 122.944 493.927 121.6C495.207 120.256 496.167 118.688 496.807 116.896C497.511 115.04 497.863 113.12 497.863 111.136C497.863 108.384 497.287 105.856 496.135 103.552C495.047 101.184 493.511 99.296 491.527 97.888C489.607 96.48 487.335 95.776 484.711 95.776C482.855 95.776 481.063 96.224 479.335 97.12C477.671 97.952 476.167 99.104 474.823 100.576C473.543 102.048 472.519 103.712 471.751 105.568V117.568C472.135 118.848 472.743 120 473.575 121.024C474.471 122.048 475.495 122.944 476.647 123.712C477.799 124.416 478.983 124.992 480.199 125.44C481.479 125.824 482.727 126.016 483.943 126.016ZM542.963 136.96C538.867 136.96 535.187 136.288 531.923 134.944C528.659 133.536 525.875 131.616 523.571 129.184C521.331 126.752 519.603 123.968 518.387 120.832C517.171 117.696 516.563 114.4 516.563 110.944C516.563 107.424 517.171 104.096 518.387 100.96C519.603 97.824 521.331 95.04 523.571 92.608C525.875 90.176 528.659 88.288 531.923 86.944C535.187 85.536 538.867 84.832 542.963 84.832C547.059 84.832 550.707 85.536 553.907 86.944C557.171 88.288 559.955 90.176 562.259 92.608C564.563 95.04 566.291 97.824 567.443 100.96C568.659 104.096 569.267 107.424 569.267 110.944C569.267 114.4 568.659 117.696 567.443 120.832C566.291 123.968 564.563 126.752 562.259 129.184C560.019 131.616 557.267 133.536 554.003 134.944C550.739 136.288 547.059 136.96 542.963 136.96ZM529.811 110.944C529.811 113.888 530.387 116.512 531.539 118.816C532.691 121.056 534.259 122.816 536.243 124.096C538.227 125.376 540.467 126.016 542.963 126.016C545.395 126.016 547.603 125.376 549.587 124.096C551.571 122.752 553.139 120.96 554.291 118.72C555.507 116.416 556.115 113.792 556.115 110.848C556.115 107.968 555.507 105.376 554.291 103.072C553.139 100.768 551.571 98.976 549.587 97.696C547.603 96.416 545.395 95.776 542.963 95.776C540.467 95.776 538.227 96.448 536.243 97.792C534.259 99.072 532.691 100.864 531.539 103.168C530.387 105.408 529.811 108 529.811 110.944ZM601.182 136.96C597.086 136.96 593.406 136.288 590.142 134.944C586.878 133.536 584.094 131.616 581.79 129.184C579.55 126.752 577.822 123.968 576.606 120.832C575.39 117.696 574.782 114.4 574.782 110.944C574.782 107.424 575.39 104.096 576.606 100.96C577.822 97.824 579.55 95.04 581.79 92.608C584.094 90.176 586.878 88.288 590.142 86.944C593.406 85.536 597.086 84.832 601.182 84.832C605.278 84.832 608.926 85.536 612.126 86.944C615.39 88.288 618.174 90.176 620.478 92.608C622.782 95.04 624.51 97.824 625.662 100.96C626.878 104.096 627.486 107.424 627.486 110.944C627.486 114.4 626.878 117.696 625.662 120.832C624.51 123.968 622.782 126.752 620.478 129.184C618.238 131.616 615.486 133.536 612.222 134.944C608.958 136.288 605.278 136.96 601.182 136.96ZM588.03 110.944C588.03 113.888 588.606 116.512 589.758 118.816C590.91 121.056 592.478 122.816 594.462 124.096C596.446 125.376 598.686 126.016 601.182 126.016C603.614 126.016 605.822 125.376 607.806 124.096C609.79 122.752 611.358 120.96 612.51 118.72C613.726 116.416 614.334 113.792 614.334 110.848C614.334 107.968 613.726 105.376 612.51 103.072C611.358 100.768 609.79 98.976 607.806 97.696C605.822 96.416 603.614 95.776 601.182 95.776C598.686 95.776 596.446 96.448 594.462 97.792C592.478 99.072 590.91 100.864 589.758 103.168C588.606 105.408 588.03 108 588.03 110.944ZM670.537 136L655.849 114.304L649.033 121.024V136H636.169V65.92H649.033V108.352L669.289 85.792H682.921L664.201 107.104L684.265 136H670.537Z" fill="black"/>
<path d="M97.5304 102H49V42L121 0L193 42.4V102H144.072V70L121 56.4L97.5304 70V102Z" fill="url(#paint1_linear_1306_37)"/>
</g>
<defs>
<linearGradient id="paint0_linear_1306_37" x1="145" y1="145" x2="-1.20241e-05" y2="145" gradientUnits="userSpaceOnUse">
<stop stop-color="#FF5770"/>
<stop offset="1" stop-color="#F79855"/>
</linearGradient>
<linearGradient id="paint1_linear_1306_37" x1="49" y1="58" x2="193" y2="58" gradientUnits="userSpaceOnUse">
<stop stop-color="#5DC1A3"/>
<stop offset="1" stop-color="#3299CB"/>
</linearGradient>
<clipPath id="clip0_1306_37">
<rect width="684" height="203" fill="white"/>
</clipPath>
</defs>
</svg>
